<?xml version="1.0" encoding="utf-8"?>
<!-- Generator: Adobe Illustrator 25.4.1, SVG Export Plug-In . SVG Version: 6.00 Build 0)  -->
<svg version="1.1" id="Слой_1" xmlns="http://www.w3.org/2000/svg" xmlns:xlink="http://www.w3.org/1999/xlink" x="0px" y="0px"
	 viewBox="0 0 280.2 65.5" style="enable-background:new 0 0 280.2 65.5;" xml:space="preserve">
<style type="text/css">
	.st0{fill:#C96DA9;}
	.st1{fill:#1E1E1C;}
	.st2{fill:#FFFFFF;}
</style>
<g>
	<g>
		<path class="st0" d="M45.1,65.5H20.4C9.1,65.5,0,56.4,0,45.1V20.4C0,9.1,9.1,0,20.4,0h24.8c11.2,0,20.4,9.1,20.4,20.4v24.8
			C65.5,56.4,56.4,65.5,45.1,65.5z"/>
	</g>
	<g>
		<rect x="3.7" y="31.1" transform="matrix(0.7071 -0.7071 0.7071 0.7071 -13.5594 32.7368)" class="st1" width="58" height="3.2"/>
	</g>
	<g>
		<path class="st2" d="M32.3,19.8c0,0-5.5,6.6-12.2,6.6S7.9,19.8,7.9,19.8s5.5-6.6,12.2-6.6S32.3,19.8,32.3,19.8z"/>
	</g>
	<g>
		<path class="st2" d="M57.8,45.7c0,0-5.5,5.5-12.3,5.5s-12.3-5.5-12.3-5.5s5.5-5.5,12.3-5.5S57.8,45.7,57.8,45.7z"/>
	</g>
	<g>
		<path class="st1" d="M20.1,28.5c-0.2,0-0.4,0-0.5,0c-7.2-0.2-12.1-4.1-13.8-5.8L8,20.4c1.5,1.4,5.6,4.7,11.7,4.9
			c6.8,0.2,11.3-3.7,12.6-4.9l2.2,2.3C33,24.1,27.8,28.5,20.1,28.5z"/>
	</g>
	<g>
		<path class="st1" d="M32.2,20.1c-1.2-1.2-5.8-5.1-12.6-4.9C13.6,15.3,9.5,18.7,8,20.1l-2.2-2.3c1.8-1.7,6.6-5.6,13.8-5.8
			c8-0.2,13.4,4.4,14.9,5.8L32.2,20.1z"/>
	</g>
	<g>
		<path class="st1" d="M57.6,45.7c-1.2-0.6-5.9-2.7-12.7-2.6c-6.2,0.1-10.2,1.8-11.7,2.5l-1.4-2.9c1.7-0.8,6.3-2.8,13.1-2.8
			c7.4-0.1,12.4,2,14.2,2.9L57.6,45.7z"/>
	</g>
	<g>
		<path class="st1" d="M45.5,51.5c-0.2,0-0.4,0-0.6,0c-6.8-0.1-11.4-2.1-13.1-2.9l1.5-2.9c1.5,0.7,5.5,2.5,11.7,2.6
			c6.8,0.1,11.5-1.9,12.7-2.5l1.4,2.9C57.3,49.5,52.5,51.5,45.5,51.5z"/>
	</g>
	<g>
		<circle class="st1" cx="15.5" cy="17.1" r="2.5"/>
	</g>
	<g>
		<circle class="st1" cx="49.7" cy="46.6" r="2.5"/>
	</g>
</g>
<g>
	<polygon class="st1" points="81.6,29.1 88.1,29.1 88.1,9.6 98.7,9.6 98.7,29.1 105.2,29.1 105.2,4.2 81.6,4.2 	"/>
	<path class="st1" d="M122.7,3.8c-8.2,0-14.1,5.4-14.1,12.8s5.9,12.8,14.1,12.8c8.2,0,14.1-5.4,14.1-12.8S130.9,3.8,122.7,3.8z
		 M122.7,24c-4.3,0-7.5-3.1-7.5-7.3s3.2-7.3,7.5-7.3c4.3,0,7.5,3.1,7.5,7.3S127,24,122.7,24z"/>
	<path class="st1" d="M94.2,40.8c2.4,0,5.8,0.4,7.1,3.5l0,0h6.5v-1.1c-1.8-6.5-9.5-7.9-13.9-7.9c-8.1,0-14,5.4-14,12.8
		S85.7,61,93.9,61c7,0,12.1-3.8,14-8.2v-1.5l-6.8,0l-0.8,1.4c-1.6,1.8-3.6,2.7-6,2.7c-4.5,0-7.7-3-7.7-7.3S89.7,40.8,94.2,40.8z"/>
	<path class="st1" d="M239.3,40.6c2.4,0,5.8,0.4,7.1,3.5l0,0h6.5V43c-1.8-6.5-9.5-7.9-13.9-7.9c-8.1,0-14,5.4-14,12.8
		s5.9,12.8,14,12.8c7,0,12.1-3.8,14-8.2V51l-6.8,0l-0.8,1.4c-1.6,1.8-3.6,2.7-6,2.7c-4.5,0-7.7-3-7.7-7.3S234.8,40.6,239.3,40.6z"/>
	<polygon class="st1" points="135.6,35.7 128.5,35.7 120.3,45.4 118.3,45.4 118.3,35.7 111.8,35.7 111.8,60.5 118.3,60.5 
		118.3,49.7 120.2,49.7 128.3,60.5 135.8,60.5 125,47.3 	"/>
	<path class="st1" d="M144.7,56.6V35.7h-6.5v24.8h11.1c0.4-1.3,5.4-20.2,5.8-21.6l0.7,0c0,7.7,0,13.9,0,21.6h6.5V35.7h-11.6
		c-0.1,0.6-5.1,20.3-5.2,20.9C145.4,56.6,144.7,56.6,144.7,56.6z"/>
	<path class="st1" d="M190.5,35.7h-20.1l-0.3,7.8c-0.2,5.6-0.9,11.3-4,11.4h-1.4l0,10.1h6.1v-4.9h17V65h6.1V54.9h-3.5L190.5,35.7
		L190.5,35.7z M184,40.9v14h-10.1c1.2-1.9,1.9-5.3,2.1-10.9l0.1-3.1C176.1,40.9,184,40.9,184,40.9z"/>
	<path class="st1" d="M209,35.3c-8.2,0-14.1,5.4-14.1,12.8S200.8,61,209,61s14.1-5.4,14.1-12.8S217.2,35.3,209,35.3z M209,55.4
		c-4.3,0-7.5-3.1-7.5-7.3s3.1-7.3,7.5-7.3c4.3,0,7.5,3.1,7.5,7.3S213.4,55.4,209,55.4z"/>
	<path class="st1" d="M273.6,35.7L267,50.6l-6.5-14.9h-7.1l9.6,18.7l-4.7,0l0,5h7.6c2.7-0.1,4.7-2.8,8-9.5l6.3-14.1
		C280.2,35.7,273.6,35.7,273.6,35.7z"/>
</g>
</svg>
