<?xml version="1.0" encoding="utf-8"?>
<!-- Generator: Adobe Illustrator 25.4.1, SVG Export Plug-In . SVG Version: 6.00 Build 0)  -->
<svg version="1.1" id="Слой_1" xmlns="http://www.w3.org/2000/svg" xmlns:xlink="http://www.w3.org/1999/xlink" x="0px" y="0px"
	 viewBox="0 0 128 128" style="enable-background:new 0 0 128 128;" xml:space="preserve">
<style type="text/css">
	.st0{fill:#FFFFFF;}
	.st1{fill:#1D1E1C;}
</style>
<g>
	<path class="st0" d="M109.21,56.98c0,0-20.08,24.23-44.86,24.23S19.5,56.98,19.5,56.98s20.08-24.23,44.86-24.23
		S109.21,56.98,109.21,56.98z"/>
</g>
<g>
	<path class="st1" d="M64.36,88.98c-0.65,0-1.3-0.01-1.96-0.02c-26.55-0.7-44.36-15.15-50.78-21.33l8.19-8.52
		c5.43,5.22,20.49,17.44,42.9,18.03c24.9,0.66,41.74-13.66,46.31-18.06l8.2,8.52C111.93,72.69,92.74,88.98,64.36,88.98z"/>
</g>
<g>
	<path class="st1" d="M109.03,57.96c-4.57-4.4-21.41-18.71-46.31-18.06c-22.42,0.59-37.47,12.8-42.9,18.03l-8.2-8.52
		c6.42-6.18,24.23-20.63,50.78-21.33c29.45-0.77,49.41,16.15,54.82,21.36L109.03,57.96z"/>
</g>
<g>
	<circle class="st1" cx="47.51" cy="47.11" r="9.12"/>
</g>
</svg>
